<!DOCTYPE svg PUBLIC "-//W3C//DTD SVG 1.1//EN" "http://www.w3.org/Graphics/SVG/1.1/DTD/svg11.dtd">
<!-- Uploaded to: SVG Repo, www.svgrepo.com, Transformed by: SVG Repo Mixer Tools -->
<svg width="800px" height="800px" viewBox="-0.04 0 20.04 20.04" xmlns="http://www.w3.org/2000/svg" fill="#000000">
<g id="SVGRepo_bgCarrier" stroke-width="0"/>
<g id="SVGRepo_tracerCarrier" stroke-linecap="round" stroke-linejoin="round"/>
<g id="SVGRepo_iconCarrier"> <g id="heartbeat" transform="translate(-2.039 -1.96)"> <path id="secondary" fill="#2ca9bc" d="M19,14.07A32,32,0,0,1,12,21a32,32,0,0,1-7-6.93c-2.22-3-2.76-7.25-.53-9.45,4-4,7.57.61,7.57.61s3.55-4.58,7.57-.61C21.8,6.82,21.26,11.09,19,14.07Z"/> <path id="primary" d="M8,12h2l1-3,2,6,1-3h2" fill="none" stroke="#000000" stroke-linecap="round" stroke-linejoin="round" stroke-width="2"/> <path id="primary-2" data-name="primary" d="M19,14.07A32,32,0,0,1,12,21a32,32,0,0,1-7-6.93c-2.22-3-2.76-7.25-.53-9.45,4-4,7.57.61,7.57.61s3.55-4.58,7.57-.61C21.8,6.82,21.26,11.09,19,14.07Z" fill="none" stroke="#000000" stroke-linecap="round" stroke-linejoin="round" stroke-width="2"/> </g> </g>
</svg>