<!DOCTYPE svg PUBLIC "-//W3C//DTD SVG 1.1//EN" "http://www.w3.org/Graphics/SVG/1.1/DTD/svg11.dtd">
<!-- Uploaded to: SVG Repo, www.svgrepo.com, Transformed by: SVG Repo Mixer Tools -->
<svg width="800px" height="800px" viewBox="0 0 48 48" xmlns="http://www.w3.org/2000/svg" fill="#000000">
<g id="SVGRepo_bgCarrier" stroke-width="0"/>
<g id="SVGRepo_tracerCarrier" stroke-linecap="round" stroke-linejoin="round"/>
<g id="SVGRepo_iconCarrier">
<title>Free Medical icons</title>
<path d="M37,47H11V7a6,6,0,0,1,6-6H31a6,6,0,0,1,6,6V47ZM15,43H33V7a2,2,0,0,0-2-2H17a2,2,0,0,0-2,2V43Z" fill="#000000"/>
<path d="M44,47H4a3,3,0,0,1-3-3V23a3,3,0,0,1,3-3h9v4H5V43H43V24H35.67V20H44a3,3,0,0,1,3,3V44A3,3,0,0,1,44,47Z" fill="#000000"/>
<rect x="19" y="10" width="4" height="10" fill="#2ca9bc"/>
<rect x="22" y="10" width="4" height="10" transform="translate(9 39) rotate(-90)" fill="#2ca9bc"/>
<rect x="25" y="10" width="4" height="10" fill="#2ca9bc"/>
<rect width="48" height="48" fill="none"/>
</g>
</svg>