<?xml version="1.0" encoding="utf-8"?><!-- Uploaded to: SVG Repo, www.svgrepo.com, Generator: SVG Repo Mixer Tools -->
<svg fill="#000000" width="800px" height="800px" viewBox="0 0 24 24" id="medical-receipt-left-2" data-name="Line Color" xmlns="http://www.w3.org/2000/svg" class="icon line-color"><path id="secondary" d="M14,8v4m2-2H12m-.73,6.73a2.52,2.52,0,0,1,0,3.54h0a2.52,2.52,0,0,1-3.54,0l-4-4a2.52,2.52,0,0,1,0-3.54h0a2.52,2.52,0,0,1,3.54,0ZM9.12,14.88,5.88,18.12" style="fill: none; stroke: rgb(44, 169, 188); stroke-linecap: round; stroke-linejoin: round; stroke-width: 2;"></path><path id="primary" d="M7,8V4A1,1,0,0,1,8,3H20a1,1,0,0,1,1,1V20a1,1,0,0,1-1,1H16" style="fill: none; stroke: rgb(0, 0, 0); stroke-linecap: round; stroke-linejoin: round; stroke-width: 2;"></path></svg>